<svg xmlns="http://www.w3.org/2000/svg" height="800" width="1200" viewBox="-31.52985 -36.50775 273.2587 219.0465"><g fill="#49864d"><path d="M167.502 16.843c.543-.49 4.686-5.715 4.82-13.25.077-4.36-6.96-4.96-6.576-.648.303 3.374-.352 8.595-1.431 10.676-1.791 3.433 1.66 4.58 3.187 3.222zm38.225 24.524h-.028a4.481 4.481 0 10-.159 8.959 4.481 4.481 0 10.187-8.959zm-.148 8.028a3.568 3.568 0 01.07-7.132h.025a3.452 3.452 0 013.37 3.624c-.028 1.992-1.505 3.572-3.465 3.508z"/><path d="M206.637 45.986v-.06a1.15 1.15 0 00.952-1.058 1.21 1.21 0 00-.423-.962c-.321-.226-.706-.353-1.545-.38a8.504 8.504 0 00-1.72.133l-.078 4.435 1.037.018.031-1.763h.487c.575 0 .843.23.917.705a3.526 3.526 0 00.352 1.058l1.118.021c-.11-.134-.19-.409-.307-1.09-.116-.556-.374-.916-.821-1.057zm-1.217-.353h-.49l.021-1.283a2.468 2.468 0 01.572-.046c.655 0 .944.29.937.705.007.459-.454.638-1.026.628zm-11.123 3.283c-11.427 8.419-30.606 13.75-47.16 19.038a.705.705 0 01.036-.137c1.502-6.019 10.531-41.074 11.987-45.671 1.456-4.598-4.714-6.823-5.912-2.592-5.42 19.173-16.349 35.359-18.922 35.313-.875 0-1.058-1.156-1.04-1.869.109-6.11 4.823-19.528 5.387-21.827.864-3.48-4.474-4.026-5.899-.765-4.065 9.36-5.937 19.409-15.259 31.967-.648.882-1.174.68-1.036-.733.5-4.904 3.028-13.976 3.102-18.196.067-3.878-.352-6.346-3.617-6.4-4.887-.087-10.108 7.796-12.932 13.821.603-4.935-1.929-6.79-3.854-6.825-5.898-.106-11.377 10.122-14.307 17.586.282-6.255-1.442-8.87-6.748-8.966-3.487-.063-8.063 2.82-13.514 6.346.029-12.36.706-26.477 1.784-40.545.314-4.157-6.328-6.699-9.963-.352-9.52 16.57-20.988 42.42-29.947 66.483A165.085 165.085 0 012.428 95.94c-2.743 1.033-2.91 2.626-1.746 3.79 1.164 1.163 3.092 1.509 5.028 1.509 4.121 0 10.224-2.658 17.163-6.656-6.699 19.13-11.282 36.032-11.282 44.63 0 3.526.86 7.052 4.643 6.805 2.665-.162 3.688-2.02 3.878-5.465.765-13.654 6.06-32.845 12.88-52.292 8.168-5.411 16.714-11.69 24.178-17.127.42 16.31 2.303 31.865 7.404 38.014 2.144 2.591 4.312 2.313 5.55 1.058 1.008-1.009 1.41-2.659.666-3.914-4.358-7.404-5.891-30.497-6.12-40.587 21.467-15.799 14.2-9.72 9.949 20.096-.705 4.883 5.09 6.441 5.958 2.86 6.79-27.97 13.817-34.806 14.889-36.03 1.072-1.223 1.24-.704 1.23.022-.077 4.312-3.278 19.895-3.684 22.917-.606 4.54 4.615 6.036 5.415 2.855 6.248-24.376 11.004-30.285 13.077-33.014.677-.892 1.241-.87 1.22.201-.021 1.072-3.205 13.902-3.314 20.188-.06 3.388 1.294 5.45 4.142 5.504 5.07.088 11.988-10.687 13.75-14.43 1.058 4.064 4.383 4.434 5.793 4.46 4.703.084 10.704-10.007 12.657-13.469-.747 3.011-3.84 16.997-5.468 21.778l-.226.652c-26.756 9.491-47.525 25.297-47.765 38.814-.124 6.879 5.327 9.223 10.125 9.311 18.545.35 35.116-20.247 42.844-43.947 14.614-4.89 43.013-12.34 50.477-21.351 1.096-1.319 1.534-2.503 1.463-3.713-.07-1.209-1.248-1.71-2.905-.493zM36.57 78.454c7.404-19.78 15.84-38.899 22.152-51.75-.653 7.404-1.675 22.29-1.633 37.58-6.903 4.887-13.549 9.66-20.52 14.17zm67.118 34.368c-2.93-.053-4.347-1.763-4.312-3.847.176-9.872 13.729-21.859 38.038-31.604-11.913 28.953-27.86 35.553-33.726 35.45z"/><path d="M192.735 4.126c-8.588.176-20.576 9.921-20.71 17.561-.14 7.943 11.635 9.893 11.575 13.525-.116 6.547-15.188 10.93-20.946 11.56-1.625.18-1.914 1.996-.6 3.31 4.175 4.175 19.117-1.903 25.227-8.013 2.32-2.32 3.832-4.911 3.878-7.577.12-6.755-12.34-8.313-12.23-13.566.088-4.897 8.733-11.325 12.34-11.399.902 0 .972.836.962 1.488-.021 1.241-.652 2.595 1.273 2.556 2.358-.046 4.703-2.944 4.742-5.288.028-1.971-2.289-4.22-5.511-4.157z"/></g></svg>