<svg version="1.1" id="Layer_1" xmlns="http://www.w3.org/2000/svg" xmlns:xlink="http://www.w3.org/1999/xlink" x="0px" y="0px"
	 width="100%" viewBox="0 0 721 212" enable-background="new 0 0 721 212" xml:space="preserve">
<path fill="#FEFFFF" opacity="1.000000" stroke="none" 
	d="
M469.000000,213.000000 
	C312.666656,213.000000 156.833328,213.000000 1.000000,213.000000 
	C1.000000,142.333328 1.000000,71.666664 1.000000,1.000000 
	C241.333328,1.000000 481.666656,1.000000 722.000000,1.000000 
	C722.000000,71.666664 722.000000,142.333328 722.000000,213.000000 
	C637.833313,213.000000 553.666687,213.000000 469.000000,213.000000 
M614.493164,138.720627 
	C613.811462,146.987045 610.101440,155.037918 612.374451,164.079315 
	C617.019592,163.322952 621.247070,162.657852 625.465393,161.939026 
	C628.011169,161.505219 629.295410,160.326523 629.442200,157.359360 
	C629.693542,152.278091 630.626831,147.230545 631.244446,142.398300 
	C636.600586,142.398300 641.537231,143.247070 646.046631,142.219971 
	C655.175354,140.140686 660.689514,130.022079 661.080750,117.726501 
	C661.557007,102.757195 652.924438,93.421516 637.332092,102.710938 
	C634.127380,98.935921 622.501648,98.693413 615.684387,102.383377 
	C619.456299,107.629997 619.475281,113.438309 618.300659,119.504364 
	C617.323059,124.552490 616.681396,129.665649 615.193848,134.988571 
	C614.224487,133.806152 613.255127,132.623734 612.288452,131.439148 
	C605.979797,132.696899 604.902039,132.276184 604.394165,125.704163 
	C603.767395,117.593033 604.132202,109.410538 603.765686,101.272530 
	C603.415100,93.486786 602.835815,85.700890 601.979797,77.956772 
	C601.798218,76.314415 600.118103,73.636040 598.900269,73.501640 
	C589.856262,72.503487 580.861023,73.006668 571.238647,75.933144 
	C577.594116,83.340218 572.722961,89.558014 570.104004,95.699959 
	C564.368042,109.152138 558.159546,122.403061 552.125183,135.727631 
	C550.875183,138.487793 549.787476,140.878189 554.098389,142.197983 
	C559.079712,143.723038 561.655212,143.143509 563.023071,139.198776 
	C564.710632,134.331787 566.109375,129.356186 568.004639,124.574852 
	C568.566101,123.158272 570.298706,121.378822 571.637878,121.249557 
	C576.006104,120.827904 580.440552,121.091537 585.076111,121.091537 
	C585.076111,123.735802 585.022705,125.723778 585.090454,127.707626 
	C585.164062,129.861877 585.114197,132.059250 585.531067,134.155716 
	C586.873047,140.905060 589.813965,143.767731 596.534851,142.874130 
	C602.472534,142.084656 608.191956,139.653366 614.493164,138.720627 
M206.383636,114.908455 
	C206.193802,108.097305 206.713287,101.178741 205.700623,94.492203 
	C198.357834,46.008114 154.843384,7.199299 98.728012,14.418656 
	C48.234451,20.914759 12.185483,67.139023 17.173956,117.593231 
	C22.163160,168.054855 66.381363,209.538467 124.381172,202.683441 
	C168.606232,197.456451 203.354385,160.082474 206.383636,114.908455 
M703.948364,137.435760 
	C708.681152,131.865768 710.656555,125.316132 710.929077,118.118103 
	C711.488831,103.332848 703.586182,93.220871 687.078369,102.694237 
	C684.143677,98.932419 672.279480,98.705101 666.314514,101.966057 
	C667.192749,105.802155 668.776062,109.467400 668.686951,113.091522 
	C668.553223,118.529259 667.361816,123.958450 666.412354,129.354721 
	C664.799133,138.523575 662.866211,147.638306 661.373169,156.825439 
	C660.391296,162.867126 661.665344,164.012177 667.351379,163.197617 
	C669.975159,162.821747 672.586975,162.362747 675.208740,161.972015 
	C678.093933,161.542023 679.168640,160.131638 679.294067,156.997940 
	C679.494812,151.982529 680.534241,147.000671 681.221069,141.990402 
	C693.185669,144.106354 697.348145,143.295242 703.948364,137.435760 
M414.798309,138.966965 
	C423.891235,142.941132 431.939636,141.594620 439.008606,133.836639 
	C439.283813,134.946976 439.517181,135.700714 439.653656,136.471588 
	C440.258667,139.889267 442.435150,141.215302 445.713684,140.996323 
	C449.250061,140.760132 450.674744,138.426010 450.685852,135.280380 
	C450.754089,115.960381 450.806305,96.639336 450.656219,77.320259 
	C450.620972,72.779381 447.749268,70.566360 443.485321,71.006989 
	C439.359680,71.433304 437.878265,74.068779 437.881592,77.892616 
	C437.886810,83.911003 437.882996,89.929398 437.882996,96.525948 
	C423.153076,85.868164 408.378510,91.164421 405.488922,107.736290 
	C404.458740,113.644470 405.229218,119.980690 405.911041,126.039001 
	C406.509338,131.355179 409.567627,135.602600 414.798309,138.966965 
M249.003738,102.416740 
	C245.675446,93.900108 242.378891,85.370888 239.007339,76.871414 
	C236.885849,71.523285 233.282715,69.621338 229.069061,71.484146 
	C225.081589,73.246956 223.773300,77.210030 225.849869,82.084618 
	C233.474899,99.983894 241.034012,117.914978 249.035187,135.645798 
	C250.093201,137.990372 253.575821,140.643127 255.908157,140.617950 
	C258.264160,140.592545 261.680817,137.907074 262.748749,135.537720 
	C270.810852,117.650894 278.441223,99.568657 286.128387,81.514236 
	C288.035370,77.035500 286.578766,73.138557 282.681854,71.468452 
	C278.577026,69.709221 274.925903,71.512077 272.940826,76.405548 
	C270.878784,81.488815 268.921875,86.614723 266.917603,91.721436 
	C263.362427,100.779678 259.806213,109.837517 255.868744,119.867798 
	C253.371674,113.557060 251.312302,108.352486 249.003738,102.416740 
M296.838196,131.573898 
	C304.570953,143.246613 325.176056,143.150955 334.933472,136.821686 
	C337.803650,134.959930 339.273041,132.437408 337.347778,129.250000 
	C335.404694,126.033028 332.572510,126.524406 329.531647,127.932549 
	C327.014221,129.098297 324.341156,130.233582 321.629028,130.615631 
	C313.625702,131.743042 307.372345,127.222984 306.618103,120.007149 
	C311.456146,120.007149 316.277588,120.007187 321.098999,120.007149 
	C326.091278,120.007111 331.085876,119.913635 336.075073,120.038048 
	C339.709625,120.128685 341.081207,118.483192 341.154480,114.939117 
	C341.410492,102.553917 333.280640,92.891441 320.905731,91.105690 
	C307.670319,89.195763 296.463776,95.829063 293.495331,107.844131 
	C291.531219,115.794044 291.952057,123.708130 296.838196,131.573898 
M506.105133,129.469513 
	C507.058929,123.491638 508.928680,117.487152 508.756042,111.541992 
	C508.483612,102.161583 501.867065,94.375496 493.351807,92.164307 
	C483.105133,89.503510 473.342926,90.394844 465.947754,98.910110 
	C457.276337,108.894943 459.106750,128.237717 468.910278,136.066757 
	C478.298981,143.564545 498.252625,143.437210 506.105133,129.469513 
M351.266998,110.504013 
	C351.267151,118.157478 351.207123,125.811584 351.287964,133.464203 
	C351.344879,138.849930 353.319672,141.062012 357.711060,141.012177 
	C362.096741,140.962418 364.071472,138.676788 364.112183,133.410370 
	C364.166168,126.422874 364.022583,119.432137 364.179810,112.447647 
	C364.331573,105.707100 367.559723,102.234207 373.232391,102.285248 
	C378.833923,102.335648 381.963318,105.863121 382.077332,112.611794 
	C382.201019,119.930450 382.028564,127.254211 382.161194,134.572556 
	C382.235687,138.682678 384.325165,141.076233 388.697815,141.016815 
	C392.803864,140.960999 394.904785,138.670883 394.952301,134.802917 
	C395.070862,125.155449 395.284363,115.489502 394.833282,105.860313 
	C394.399200,96.593239 388.087067,91.276436 378.781403,90.933472 
	C372.285400,90.694061 367.333801,93.373367 363.011719,98.626366 
	C362.656311,93.696022 361.071838,90.331421 355.995850,91.053490 
	C350.995728,91.764778 351.238129,95.786125 351.262634,99.524170 
	C351.284454,102.851624 351.267090,106.179344 351.266998,110.504013 
M519.264709,105.527374 
	C519.264893,114.848518 519.206787,124.170181 519.287964,133.490616 
	C519.333801,138.752380 521.458679,141.081955 525.790771,141.013245 
	C530.108887,140.944733 532.060120,138.608810 532.117615,133.309647 
	C532.184509,127.152138 531.981506,120.983932 532.275391,114.838524 
	C532.684021,106.295120 536.142395,102.208824 543.835571,101.194847 
	C547.706787,100.684608 549.700684,98.925667 549.335327,95.069527 
	C548.965759,91.170151 546.183960,89.116158 542.753967,90.153214 
	C538.583862,91.414062 534.789246,93.916969 530.783936,95.906555 
	C531.073242,96.653816 530.823853,96.259758 530.773926,95.841858 
	C530.301147,91.887405 528.151489,89.666679 524.122070,90.141037 
	C520.189880,90.603943 519.179626,93.522064 519.254944,97.051819 
	C519.308105,99.547417 519.264893,102.045074 519.264709,105.527374 
z"/>
<path fill="#229EBC" opacity="1.000000" stroke="none" 
	d="
M206.340408,115.362610 
	C203.354385,160.082474 168.606232,197.456451 124.381172,202.683441 
	C66.381363,209.538467 22.163160,168.054855 17.173956,117.593231 
	C12.185483,67.139023 48.234451,20.914759 98.728012,14.418656 
	C154.843384,7.199299 198.357834,46.008114 205.700623,94.492203 
	C206.713287,101.178741 206.193802,108.097305 206.340408,115.362610 
M63.013424,99.500000 
	C63.013424,108.327995 62.402843,117.210030 63.177982,125.969429 
	C64.023575,135.525040 61.810631,143.117371 53.839779,148.904099 
	C52.382038,149.962387 51.216286,152.499115 51.241154,154.335434 
	C51.343998,161.930466 59.236973,169.937286 66.756775,169.966431 
	C97.737724,170.086517 128.719604,170.071228 159.700714,169.971542 
	C166.146790,169.950806 173.189453,164.161957 174.741333,157.908081 
	C175.695694,154.062119 175.746796,150.248276 171.898529,147.620071 
	C164.834732,142.795807 163.375427,136.054398 163.661865,127.794235 
	C164.244537,110.991196 163.737152,94.152779 163.905823,77.331223 
	C163.947418,73.181641 162.547226,71.739990 158.396057,71.903557 
	C151.411118,72.178780 144.407211,72.004593 137.411804,71.952057 
	C136.230698,71.943184 135.052139,71.595901 132.854538,71.240250 
	C137.769852,67.067451 141.659531,63.360252 138.502853,57.271355 
	C137.047852,54.464844 135.915466,51.445515 134.130371,48.874268 
	C133.189667,47.519253 131.176910,46.139942 129.618896,46.105690 
	C118.797287,45.867798 107.966301,45.889137 97.143082,46.087177 
	C95.671013,46.114113 93.657303,47.227772 92.878021,48.460217 
	C90.842819,51.678928 89.110680,55.147011 87.712303,58.694839 
	C86.234558,62.443993 86.963348,65.862717 90.536873,68.346313 
	C91.537323,69.041626 92.326508,70.040932 93.212608,70.900787 
	C84.647949,71.978981 76.679489,72.174568 68.727234,71.900345 
	C64.449646,71.752838 62.720268,73.004326 62.928730,77.516502 
	C63.251247,84.497406 63.013565,91.504189 63.013424,99.500000 
z"/>
<path fill="#27A0BE" opacity="1.000000" stroke="none" 
	d="
M614.007751,137.946991 
	C608.191956,139.653366 602.472534,142.084656 596.534851,142.874130 
	C589.813965,143.767731 586.873047,140.905060 585.531067,134.155716 
	C585.114197,132.059250 585.164062,129.861877 585.090454,127.707626 
	C585.022705,125.723778 585.076111,123.735802 585.076111,121.091537 
	C580.440552,121.091537 576.006104,120.827904 571.637878,121.249557 
	C570.298706,121.378822 568.566101,123.158272 568.004639,124.574852 
	C566.109375,129.356186 564.710632,134.331787 563.023071,139.198776 
	C561.655212,143.143509 559.079712,143.723038 554.098389,142.197983 
	C549.787476,140.878189 550.875183,138.487793 552.125183,135.727631 
	C558.159546,122.403061 564.368042,109.152138 570.104004,95.699959 
	C572.722961,89.558014 577.594116,83.340218 571.238647,75.933144 
	C580.861023,73.006668 589.856262,72.503487 598.900269,73.501640 
	C600.118103,73.636040 601.798218,76.314415 601.979797,77.956772 
	C602.835815,85.700890 603.415100,93.486786 603.765686,101.272530 
	C604.132202,109.410538 603.767395,117.593033 604.394165,125.704163 
	C604.902039,132.276184 605.979797,132.696899 612.287109,131.440231 
	C613.255127,132.623734 614.224487,133.806152 615.561768,135.192902 
	C615.630249,135.928009 615.330872,136.458771 614.750122,137.040527 
	C614.296997,137.405991 614.125183,137.720490 613.967407,138.013275 
	C613.981506,137.991577 614.007751,137.946976 614.007751,137.946991 
M573.003418,111.886436 
	C577.045959,112.398178 581.088440,112.909920 585.310669,113.444405 
	C585.310669,103.078636 585.310669,93.647690 585.310669,84.216736 
	C584.863586,84.143600 584.416504,84.070465 583.969421,83.997330 
	C580.358276,93.017761 576.747192,102.038185 573.003418,111.886436 
z"/>
<path fill="#26A0BD" opacity="1.000000" stroke="none" 
	d="
M703.701538,137.700653 
	C697.348145,143.295242 693.185669,144.106354 681.221069,141.990402 
	C680.534241,147.000671 679.494812,151.982529 679.294067,156.997940 
	C679.168640,160.131638 678.093933,161.542023 675.208740,161.972015 
	C672.586975,162.362747 669.975159,162.821747 667.351379,163.197617 
	C661.665344,164.012177 660.391296,162.867126 661.373169,156.825439 
	C662.866211,147.638306 664.799133,138.523575 666.412354,129.354721 
	C667.361816,123.958450 668.553223,118.529259 668.686951,113.091522 
	C668.776062,109.467400 667.192749,105.802155 666.314514,101.966057 
	C672.279480,98.705101 684.143677,98.932419 687.078369,102.694237 
	C703.586182,93.220871 711.488831,103.332848 710.929077,118.118103 
	C710.656555,125.316132 708.681152,131.865768 703.701538,137.700653 
M693.212646,115.628609 
	C693.152100,114.309555 693.456421,112.814621 692.929077,111.720642 
	C692.395691,110.614212 691.062012,109.236969 690.036560,109.201469 
	C688.920044,109.162819 686.913513,110.377457 686.743408,111.309845 
	C685.337830,119.017418 684.268433,126.786293 683.097229,134.536606 
	C683.577759,134.941193 684.058228,135.345795 684.538757,135.750381 
	C686.329102,134.303131 689.078491,133.190369 689.722778,131.343384 
	C691.382507,126.584488 692.110657,121.500679 693.212646,115.628609 
z"/>
<path fill="#25A0BD" opacity="1.000000" stroke="none" 
	d="
M615.031494,136.989517 
	C615.330872,136.458771 615.630249,135.928009 615.910278,135.073608 
	C616.681396,129.665649 617.323059,124.552490 618.300659,119.504364 
	C619.475281,113.438309 619.456299,107.629997 615.684387,102.383377 
	C622.501648,98.693413 634.127380,98.935921 637.332092,102.710938 
	C652.924438,93.421516 661.557007,102.757195 661.080750,117.726501 
	C660.689514,130.022079 655.175354,140.140686 646.046631,142.219971 
	C641.537231,143.247070 636.600586,142.398300 631.244446,142.398300 
	C630.626831,147.230545 629.693542,152.278091 629.442200,157.359360 
	C629.295410,160.326523 628.011169,161.505219 625.465393,161.939026 
	C621.247070,162.657852 617.019592,163.322952 612.374451,164.079315 
	C610.101440,155.037918 613.811462,146.987045 614.250488,138.333801 
	C614.007751,137.946976 613.981506,137.991577 614.278442,138.073318 
	C614.727417,137.766541 614.879395,137.378021 615.031494,136.989517 
M633.882751,130.167953 
	C633.654846,131.572205 633.426941,132.976456 633.199036,134.380707 
	C633.568665,134.787857 633.938232,135.194992 634.307861,135.602142 
	C636.119629,134.430054 639.113342,133.580048 639.535889,132.029404 
	C641.249695,125.739944 642.344299,119.258461 643.224182,112.787560 
	C643.374695,111.680916 641.363159,110.280273 640.350464,109.015450 
	C639.125977,110.232368 637.132324,111.276428 636.813049,112.696800 
	C635.581116,118.177849 634.884094,123.779106 633.882751,130.167953 
z"/>
<path fill="#08354C" opacity="1.000000" stroke="none" 
	d="
M414.464783,138.783112 
	C409.567627,135.602600 406.509338,131.355179 405.911041,126.039001 
	C405.229218,119.980690 404.458740,113.644470 405.488922,107.736290 
	C408.378510,91.164421 423.153076,85.868164 437.882996,96.525948 
	C437.882996,89.929398 437.886810,83.911003 437.881592,77.892616 
	C437.878265,74.068779 439.359680,71.433304 443.485321,71.006989 
	C447.749268,70.566360 450.620972,72.779381 450.656219,77.320259 
	C450.806305,96.639336 450.754089,115.960381 450.685852,135.280380 
	C450.674744,138.426010 449.250061,140.760132 445.713684,140.996323 
	C442.435150,141.215302 440.258667,139.889267 439.653656,136.471588 
	C439.517181,135.700714 439.283813,134.946976 439.008606,133.836639 
	C431.939636,141.594620 423.891235,142.941132 414.464783,138.783112 
M437.696655,113.052216 
	C437.485138,112.078369 437.317841,111.092407 437.054779,110.132683 
	C435.643372,104.983147 432.243591,102.174782 427.547180,102.245499 
	C422.866669,102.315964 418.926270,105.263374 418.290375,110.357796 
	C417.768311,114.539940 418.005524,118.969490 418.793518,123.120941 
	C419.634430,127.551170 423.231262,129.666962 427.625031,129.697021 
	C432.293610,129.728989 435.602570,127.275146 436.773163,122.746170 
	C437.509125,119.898628 437.470398,116.850853 437.696655,113.052216 
z"/>
<path fill="#08354B" opacity="1.000000" stroke="none" 
	d="
M249.128342,102.782333 
	C251.312302,108.352486 253.371674,113.557060 255.868744,119.867798 
	C259.806213,109.837517 263.362427,100.779678 266.917603,91.721436 
	C268.921875,86.614723 270.878784,81.488815 272.940826,76.405548 
	C274.925903,71.512077 278.577026,69.709221 282.681854,71.468452 
	C286.578766,73.138557 288.035370,77.035500 286.128387,81.514236 
	C278.441223,99.568657 270.810852,117.650894 262.748749,135.537720 
	C261.680817,137.907074 258.264160,140.592545 255.908157,140.617950 
	C253.575821,140.643127 250.093201,137.990372 249.035187,135.645798 
	C241.034012,117.914978 233.474899,99.983894 225.849869,82.084618 
	C223.773300,77.210030 225.081589,73.246956 229.069061,71.484146 
	C233.282715,69.621338 236.885849,71.523285 239.007339,76.871414 
	C242.378891,85.370888 245.675446,93.900108 249.128342,102.782333 
z"/>
<path fill="#06334A" opacity="1.000000" stroke="none" 
	d="
M296.626404,131.275589 
	C291.952057,123.708130 291.531219,115.794044 293.495331,107.844131 
	C296.463776,95.829063 307.670319,89.195763 320.905731,91.105690 
	C333.280640,92.891441 341.410492,102.553917 341.154480,114.939117 
	C341.081207,118.483192 339.709625,120.128685 336.075073,120.038048 
	C331.085876,119.913635 326.091278,120.007111 321.098999,120.007149 
	C316.277588,120.007187 311.456146,120.007149 306.618103,120.007149 
	C307.372345,127.222984 313.625702,131.743042 321.629028,130.615631 
	C324.341156,130.233582 327.014221,129.098297 329.531647,127.932549 
	C332.572510,126.524406 335.404694,126.033028 337.347778,129.250000 
	C339.273041,132.437408 337.803650,134.959930 334.933472,136.821686 
	C325.176056,143.150955 304.570953,143.246613 296.626404,131.275589 
M320.372314,101.901230 
	C312.098389,100.077011 306.581970,103.643745 306.517090,110.900284 
	C313.481781,110.900284 320.445129,110.900284 327.625458,110.900284 
	C327.067139,106.568542 325.044830,103.620842 320.372314,101.901230 
z"/>
<path fill="#06344A" opacity="1.000000" stroke="none" 
	d="
M505.953308,129.808167 
	C498.252625,143.437210 478.298981,143.564545 468.910278,136.066757 
	C459.106750,128.237717 457.276337,108.894943 465.947754,98.910110 
	C473.342926,90.394844 483.105133,89.503510 493.351807,92.164307 
	C501.867065,94.375496 508.483612,102.161583 508.756042,111.541992 
	C508.928680,117.487152 507.058929,123.491638 505.953308,129.808167 
M478.677734,103.990677 
	C473.042053,109.040955 471.524780,118.602844 475.503357,124.787376 
	C478.112030,128.842422 482.071899,130.309647 486.682648,129.556396 
	C494.216125,128.325653 498.098602,120.191940 495.738342,110.985794 
	C493.833466,103.556091 487.754883,100.818436 478.677734,103.990677 
z"/>
<path fill="#09364C" opacity="1.000000" stroke="none" 
	d="
M351.267029,110.005478 
	C351.267090,106.179344 351.284454,102.851624 351.262634,99.524170 
	C351.238129,95.786125 350.995728,91.764778 355.995850,91.053490 
	C361.071838,90.331421 362.656311,93.696022 363.011719,98.626366 
	C367.333801,93.373367 372.285400,90.694061 378.781403,90.933472 
	C388.087067,91.276436 394.399200,96.593239 394.833282,105.860313 
	C395.284363,115.489502 395.070862,125.155449 394.952301,134.802917 
	C394.904785,138.670883 392.803864,140.960999 388.697815,141.016815 
	C384.325165,141.076233 382.235687,138.682678 382.161194,134.572556 
	C382.028564,127.254211 382.201019,119.930450 382.077332,112.611794 
	C381.963318,105.863121 378.833923,102.335648 373.232391,102.285248 
	C367.559723,102.234207 364.331573,105.707100 364.179810,112.447647 
	C364.022583,119.432137 364.166168,126.422874 364.112183,133.410370 
	C364.071472,138.676788 362.096741,140.962418 357.711060,141.012177 
	C353.319672,141.062012 351.344879,138.849930 351.287964,133.464203 
	C351.207123,125.811584 351.267151,118.157478 351.267029,110.005478 
z"/>
<path fill="#0A374D" opacity="1.000000" stroke="none" 
	d="
M519.264771,105.034592 
	C519.264893,102.045074 519.308105,99.547417 519.254944,97.051819 
	C519.179626,93.522064 520.189880,90.603943 524.122070,90.141037 
	C528.151489,89.666679 530.301147,91.887405 530.773926,95.841858 
	C530.823853,96.259758 531.073242,96.653816 530.783936,95.906555 
	C534.789246,93.916969 538.583862,91.414062 542.753967,90.153214 
	C546.183960,89.116158 548.965759,91.170151 549.335327,95.069527 
	C549.700684,98.925667 547.706787,100.684608 543.835571,101.194847 
	C536.142395,102.208824 532.684021,106.295120 532.275391,114.838524 
	C531.981506,120.983932 532.184509,127.152138 532.117615,133.309647 
	C532.060120,138.608810 530.108887,140.944733 525.790771,141.013245 
	C521.458679,141.081955 519.333801,138.752380 519.287964,133.490616 
	C519.206787,124.170181 519.264893,114.848518 519.264771,105.034592 
z"/>
<path fill="#04364D" opacity="1.000000" stroke="none" 
	d="
M63.013435,99.000000 
	C63.013565,91.504189 63.251247,84.497406 62.928730,77.516502 
	C62.720268,73.004326 64.449646,71.752838 68.727234,71.900345 
	C76.679489,72.174568 84.647949,71.978981 93.212608,70.900787 
	C92.326508,70.040932 91.537323,69.041626 90.536873,68.346313 
	C86.963348,65.862717 86.234558,62.443993 87.712303,58.694839 
	C89.110680,55.147011 90.842819,51.678928 92.878021,48.460217 
	C93.657303,47.227772 95.671013,46.114113 97.143082,46.087177 
	C107.966301,45.889137 118.797287,45.867798 129.618896,46.105690 
	C131.176910,46.139942 133.189667,47.519253 134.130371,48.874268 
	C135.915466,51.445515 137.047852,54.464844 138.502853,57.271355 
	C141.659531,63.360252 137.769852,67.067451 132.854538,71.240250 
	C135.052139,71.595901 136.230698,71.943184 137.411804,71.952057 
	C144.407211,72.004593 151.411118,72.178780 158.396057,71.903557 
	C162.547226,71.739990 163.947418,73.181641 163.905823,77.331223 
	C163.737152,94.152779 164.244537,110.991196 163.661865,127.794235 
	C163.375427,136.054398 164.834732,142.795807 171.898529,147.620071 
	C175.746796,150.248276 175.695694,154.062119 174.741333,157.908081 
	C173.189453,164.161957 166.146790,169.950806 159.700714,169.971542 
	C128.719604,170.071228 97.737724,170.086517 66.756775,169.966431 
	C59.236973,169.937286 51.343998,161.930466 51.241154,154.335434 
	C51.216286,152.499115 52.382038,149.962387 53.839779,148.904099 
	C61.810631,143.117371 64.023575,135.525040 63.177982,125.969429 
	C62.402843,117.210030 63.013424,108.327995 63.013435,99.000000 
M159.255859,132.399384 
	C159.255859,113.802979 159.255859,95.206573 159.255859,76.430740 
	C150.461990,76.430740 142.269836,76.430740 133.728622,76.430740 
	C133.728622,79.828392 133.763382,82.813072 133.718307,85.796555 
	C133.677658,88.487396 132.721603,90.095177 129.560425,90.059120 
	C118.739418,89.935684 107.915680,89.955795 97.094032,90.046471 
	C93.984497,90.072525 92.980263,88.615005 93.065582,85.762283 
	C93.158310,82.661903 93.086624,79.556610 93.086624,76.455833 
	C84.030067,76.455833 75.669548,76.455833 67.404976,76.455833 
	C67.404976,97.137299 67.404976,117.376144 67.404976,137.703812 
	C68.362411,137.858932 68.999741,138.052139 69.637199,138.052582 
	C98.274879,138.072311 126.912834,138.017822 155.549957,138.147537 
	C159.424881,138.165085 159.410797,136.037506 159.255859,132.399384 
M92.464020,159.159882 
	C91.275772,154.943024 88.520981,153.730759 84.228745,154.012604 
	C78.261711,154.404434 72.249695,154.111160 66.256935,154.111160 
	C62.862873,154.111160 59.468807,154.111160 56.018715,154.111160 
	C56.828903,161.552902 61.709446,166.019287 68.455284,166.066422 
	C79.607941,166.144333 90.761513,166.090042 101.914703,166.090210 
	C120.558846,166.090500 139.203140,166.133728 157.847046,166.068024 
	C165.360886,166.041550 170.653900,161.129471 170.534790,154.111160 
	C161.085678,154.111160 151.617203,154.286682 142.160812,154.025360 
	C138.342545,153.919846 136.034164,154.864761 134.415466,158.570145 
	C133.710831,160.183182 131.107574,161.900085 129.318802,161.952927 
	C118.674294,162.267410 108.014252,162.197113 97.363777,162.009323 
	C95.849159,161.982635 94.358200,160.614105 92.464020,159.159882 
M69.943123,142.112778 
	C64.280388,141.667236 62.478626,146.329254 58.897266,149.827698 
	C95.588867,149.827698 131.401642,149.827698 167.882690,149.827698 
	C163.983353,145.126587 160.715942,141.829269 154.168747,141.930511 
	C126.401596,142.359924 98.623970,142.112823 69.943123,142.112778 
M97.118530,77.576637 
	C97.118530,80.195305 97.118530,82.813972 97.118530,85.587830 
	C100.744583,85.587830 103.777199,85.587830 106.016617,85.587830 
	C109.484253,81.914017 102.893692,74.572029 111.661827,74.030144 
	C113.796097,73.898232 117.573410,73.682411 117.831932,74.443642 
	C119.008591,77.908279 119.198959,81.707878 119.773926,85.588867 
	C122.765862,85.588867 125.796272,85.588867 129.174316,85.588867 
	C129.174316,81.039772 129.257919,76.888199 129.150818,72.741554 
	C129.043518,68.588211 127.202553,67.742271 122.973106,68.771164 
	C120.587814,69.351433 117.921104,68.756691 115.380753,68.725098 
	C114.001839,68.707954 112.621666,68.793320 111.242729,68.776825 
	C108.549500,68.744621 105.763504,69.091049 103.186653,68.515839 
	C99.725250,67.743179 97.400757,69.003632 97.139099,72.637383 
	C97.043587,73.963844 97.120491,75.302719 97.118530,77.576637 
M125.261093,158.103607 
	C127.853920,157.909790 131.225189,159.110916 131.533401,154.374100 
	C119.457489,154.374100 107.474113,154.374100 95.490730,154.374100 
	C95.281281,154.876144 95.071823,155.378204 94.862373,155.880249 
	C96.564400,156.621201 98.249886,157.954056 99.971283,158.002197 
	C108.081619,158.228958 116.201797,158.103546 125.261093,158.103607 
M125.485229,53.840973 
	C126.302612,59.030689 129.973557,58.048828 134.111328,57.585312 
	C132.952866,55.240936 132.264359,52.938541 130.827972,51.286385 
	C129.984573,50.316277 127.951271,50.135902 126.453445,50.136646 
	C126.033257,50.136856 125.614014,52.038429 125.485229,53.840973 
M101.091553,50.085789 
	C95.803894,49.889988 94.464188,51.245106 93.684319,57.578236 
	C100.383598,58.226616 100.549080,58.082481 101.091553,50.085789 
M121.178757,53.357372 
	C120.501717,49.889603 118.550705,49.143742 115.456024,50.533802 
	C115.456024,52.950180 115.456024,55.187943 115.456024,57.425701 
	C117.575813,56.138969 123.048340,61.227749 121.178757,53.357372 
M111.134598,55.307072 
	C110.570343,53.430557 112.549377,49.528229 108.912743,50.263920 
	C106.802673,50.690781 105.365120,54.442093 103.624939,56.697399 
	C104.105606,57.294682 104.586273,57.891964 105.066940,58.489243 
	C107.071831,57.719769 109.076721,56.950291 111.134598,55.307072 
M115.107819,79.808937 
	C114.136711,79.286385 113.165611,78.763840 112.194504,78.241287 
	C111.861397,80.243752 111.373924,82.240456 111.298973,84.252541 
	C111.279152,84.784660 112.539635,85.809402 113.195557,85.795921 
	C113.844200,85.782608 114.811798,84.845688 115.028580,84.129105 
	C115.350639,83.064568 115.134926,81.837341 115.107819,79.808937 
M117.234833,65.125648 
	C120.232399,66.594559 122.109673,65.856079 122.888702,62.444550 
	C116.714355,61.446712 116.714355,61.446712 117.234833,65.125648 
M133.134583,61.922382 
	C131.441589,62.023693 129.748581,62.125004 128.055588,62.226311 
	C127.962837,62.873638 127.870087,63.520962 127.777328,64.168289 
	C129.459976,64.627892 131.130814,65.264030 132.836594,65.378258 
	C133.130661,65.397942 133.573196,63.200657 133.134583,61.922382 
z"/>
<path fill="#F6FBFC" opacity="1.000000" stroke="none" 
	d="
M573.069702,111.472527 
	C576.747192,102.038185 580.358276,93.017761 583.969421,83.997330 
	C584.416504,84.070465 584.863586,84.143600 585.310669,84.216736 
	C585.310669,93.647690 585.310669,103.078636 585.310669,113.444405 
	C581.088440,112.909920 577.045959,112.398178 573.069702,111.472527 
z"/>
<path fill="#FEFFFF" opacity="1.000000" stroke="none" 
	d="
M614.750122,137.040497 
	C614.879395,137.378021 614.727417,137.766541 614.264404,138.095032 
	C614.125183,137.720490 614.296997,137.405991 614.750122,137.040497 
z"/>
<path fill="#F6FBFC" opacity="1.000000" stroke="none" 
	d="
M693.211792,116.087646 
	C692.110657,121.500679 691.382507,126.584488 689.722778,131.343384 
	C689.078491,133.190369 686.329102,134.303131 684.538757,135.750381 
	C684.058228,135.345795 683.577759,134.941193 683.097229,134.536606 
	C684.268433,126.786293 685.337830,119.017418 686.743408,111.309845 
	C686.913513,110.377457 688.920044,109.162819 690.036560,109.201469 
	C691.062012,109.236969 692.395691,110.614212 692.929077,111.720642 
	C693.456421,112.814621 693.152100,114.309555 693.211792,116.087646 
z"/>
<path fill="#F6FBFC" opacity="1.000000" stroke="none" 
	d="
M633.935181,129.751755 
	C634.884094,123.779106 635.581116,118.177849 636.813049,112.696800 
	C637.132324,111.276428 639.125977,110.232368 640.350464,109.015442 
	C641.363159,110.280273 643.374695,111.680916 643.224182,112.787560 
	C642.344299,119.258461 641.249695,125.739944 639.535889,132.029404 
	C639.113342,133.580048 636.119629,134.430054 634.307861,135.602142 
	C633.938232,135.194992 633.568665,134.787857 633.199036,134.380707 
	C633.426941,132.976456 633.654846,131.572205 633.935181,129.751755 
z"/>
<path fill="#F8F9FA" opacity="1.000000" stroke="none" 
	d="
M437.737915,113.472557 
	C437.470398,116.850853 437.509125,119.898628 436.773163,122.746170 
	C435.602570,127.275146 432.293610,129.728989 427.625031,129.697021 
	C423.231262,129.666962 419.634430,127.551170 418.793518,123.120941 
	C418.005524,118.969490 417.768311,114.539940 418.290375,110.357796 
	C418.926270,105.263374 422.866669,102.315964 427.547180,102.245499 
	C432.243591,102.174782 435.643372,104.983147 437.054779,110.132683 
	C437.317841,111.092407 437.485138,112.078369 437.737915,113.472557 
z"/>
<path fill="#F8F9FA" opacity="1.000000" stroke="none" 
	d="
M320.754303,101.967209 
	C325.044830,103.620842 327.067139,106.568542 327.625458,110.900284 
	C320.445129,110.900284 313.481781,110.900284 306.517090,110.900284 
	C306.581970,103.643745 312.098389,100.077011 320.754303,101.967209 
z"/>
<path fill="#F8FAFA" opacity="1.000000" stroke="none" 
	d="
M479.006836,103.794617 
	C487.754883,100.818436 493.833466,103.556091 495.738342,110.985794 
	C498.098602,120.191940 494.216125,128.325653 486.682648,129.556396 
	C482.071899,130.309647 478.112030,128.842422 475.503357,124.787376 
	C471.524780,118.602844 473.042053,109.040955 479.006836,103.794617 
z"/>
<path fill="#219DBA" opacity="1.000000" stroke="none" 
	d="
M159.256027,132.886856 
	C159.410797,136.037506 159.424881,138.165085 155.549957,138.147537 
	C126.912834,138.017822 98.274879,138.072311 69.637199,138.052582 
	C68.999741,138.052139 68.362411,137.858932 67.404976,137.703812 
	C67.404976,117.376144 67.404976,97.137299 67.404976,76.455833 
	C75.669548,76.455833 84.030067,76.455833 93.086624,76.455833 
	C93.086624,79.556610 93.158310,82.661903 93.065582,85.762283 
	C92.980263,88.615005 93.984497,90.072525 97.094032,90.046471 
	C107.915680,89.955795 118.739418,89.935684 129.560425,90.059120 
	C132.721603,90.095177 133.677658,88.487396 133.718307,85.796555 
	C133.763382,82.813072 133.728622,79.828392 133.728622,76.430740 
	C142.269836,76.430740 150.461990,76.430740 159.255859,76.430740 
	C159.255859,95.206573 159.255859,113.802979 159.256027,132.886856 
M118.791443,128.454407 
	C125.493179,134.893539 125.493172,134.893539 129.485764,130.938904 
	C134.314041,126.156502 134.306030,126.164307 129.458038,121.180939 
	C128.560089,120.257919 127.755928,119.243652 126.772881,118.115936 
	C127.422424,117.310387 127.900459,116.659607 128.437057,116.061371 
	C132.336716,111.713806 132.127136,110.906128 126.495621,109.672653 
	C120.832458,108.432251 115.152641,107.256905 109.453224,106.197769 
	C106.694954,105.685188 104.809967,106.369011 105.499908,109.883789 
	C106.744354,116.223373 107.842453,122.591560 109.027611,128.942947 
	C109.622971,132.133591 111.033409,132.939255 113.766212,130.681641 
	C115.065559,129.608231 116.684296,128.921417 118.791443,128.454407 
M101.058022,104.572998 
	C102.050247,103.834175 103.042473,103.095352 104.034698,102.356522 
	C102.472450,100.673660 101.041603,98.819305 99.244766,97.442619 
	C98.852791,97.142296 97.152924,98.549004 95.295570,99.599144 
	C97.505486,101.512848 99.007736,102.813744 101.058022,104.572998 
M115.484909,102.900238 
	C117.030228,101.112816 120.109077,99.429436 114.639091,96.394028 
	C113.807457,97.670586 112.702362,99.113823 111.895378,100.707977 
	C111.465172,101.557854 111.550247,102.668564 111.402748,103.661545 
	C112.592133,103.576904 113.781525,103.492271 115.484909,102.900238 
M109.153496,96.668716 
	C109.132118,94.087532 107.368431,92.944397 105.854805,94.704903 
	C104.757080,95.981667 105.288948,98.775131 105.406410,100.874809 
	C105.427628,101.254150 106.962532,101.548805 107.798599,101.882561 
	C108.253128,100.443642 108.707657,99.004723 109.153496,96.668716 
M94.876740,110.005211 
	C96.373764,109.996857 97.990959,110.324806 99.321136,109.849503 
	C100.076218,109.579712 100.361244,107.994354 100.857956,107.001472 
	C98.825226,106.694801 96.793251,106.262993 94.758766,106.250839 
	C94.522835,106.249435 94.272995,108.575851 94.876740,110.005211 
M103.838753,113.440613 
	C101.246490,109.821808 99.561867,112.827881 98.205788,114.512886 
	C97.437996,115.466904 97.729477,117.273438 97.543861,118.695992 
	C98.087814,118.836723 98.631760,118.977448 99.175713,119.118172 
	C100.714584,117.470779 102.253464,115.823380 103.838753,113.440613 
z"/>
<path fill="#209AB8" opacity="1.000000" stroke="none" 
	d="
M92.660156,159.513245 
	C94.358200,160.614105 95.849159,161.982635 97.363777,162.009323 
	C108.014252,162.197113 118.674294,162.267410 129.318802,161.952927 
	C131.107574,161.900085 133.710831,160.183182 134.415466,158.570145 
	C136.034164,154.864761 138.342545,153.919846 142.160812,154.025360 
	C151.617203,154.286682 161.085678,154.111160 170.534790,154.111160 
	C170.653900,161.129471 165.360886,166.041550 157.847046,166.068024 
	C139.203140,166.133728 120.558846,166.090500 101.914703,166.090210 
	C90.761513,166.090042 79.607941,166.144333 68.455284,166.066422 
	C61.709446,166.019287 56.828903,161.552902 56.018715,154.111160 
	C59.468807,154.111160 62.862873,154.111160 66.256935,154.111160 
	C72.249695,154.111160 78.261711,154.404434 84.228745,154.012604 
	C88.520981,153.730759 91.275772,154.943024 92.660156,159.513245 
z"/>
<path fill="#209BB9" opacity="1.000000" stroke="none" 
	d="
M70.396652,142.112839 
	C98.623970,142.112823 126.401596,142.359924 154.168747,141.930511 
	C160.715942,141.829269 163.983353,145.126587 167.882690,149.827698 
	C131.401642,149.827698 95.588867,149.827698 58.897266,149.827698 
	C62.478626,146.329254 64.280388,141.667236 70.396652,142.112839 
z"/>
<path fill="#209BB8" opacity="1.000000" stroke="none" 
	d="
M97.118637,77.106277 
	C97.120491,75.302719 97.043587,73.963844 97.139099,72.637383 
	C97.400757,69.003632 99.725250,67.743179 103.186653,68.515839 
	C105.763504,69.091049 108.549500,68.744621 111.242729,68.776825 
	C112.621666,68.793320 114.001839,68.707954 115.380753,68.725098 
	C117.921104,68.756691 120.587814,69.351433 122.973106,68.771164 
	C127.202553,67.742271 129.043518,68.588211 129.150818,72.741554 
	C129.257919,76.888199 129.174316,81.039772 129.174316,85.588867 
	C125.796272,85.588867 122.765862,85.588867 119.773926,85.588867 
	C119.198959,81.707878 119.008591,77.908279 117.831932,74.443642 
	C117.573410,73.682411 113.796097,73.898232 111.661827,74.030144 
	C102.893692,74.572029 109.484253,81.914017 106.016617,85.587830 
	C103.777199,85.587830 100.744583,85.587830 97.118530,85.587830 
	C97.118530,82.813972 97.118530,80.195305 97.118637,77.106277 
z"/>
<path fill="#1F96B4" opacity="1.000000" stroke="none" 
	d="
M124.789780,158.103699 
	C116.201797,158.103546 108.081619,158.228958 99.971283,158.002197 
	C98.249886,157.954056 96.564400,156.621201 94.862373,155.880249 
	C95.071823,155.378204 95.281281,154.876144 95.490730,154.374100 
	C107.474113,154.374100 119.457489,154.374100 131.533401,154.374100 
	C131.225189,159.110916 127.853920,157.909790 124.789780,158.103699 
z"/>
<path fill="#1E94B2" opacity="1.000000" stroke="none" 
	d="
M125.339783,53.454411 
	C125.614014,52.038429 126.033257,50.136856 126.453445,50.136646 
	C127.951271,50.135902 129.984573,50.316277 130.827972,51.286385 
	C132.264359,52.938541 132.952866,55.240936 134.111328,57.585312 
	C129.973557,58.048828 126.302612,59.030689 125.339783,53.454411 
z"/>
<path fill="#1F97B5" opacity="1.000000" stroke="none" 
	d="
M101.414062,50.325226 
	C100.549080,58.082481 100.383598,58.226616 93.684319,57.578236 
	C94.464188,51.245106 95.803894,49.889988 101.414062,50.325226 
z"/>
<path fill="#1E92AF" opacity="1.000000" stroke="none" 
	d="
M121.323929,53.745651 
	C123.048340,61.227749 117.575813,56.138969 115.456024,57.425701 
	C115.456024,55.187943 115.456024,52.950180 115.456024,50.533802 
	C118.550705,49.143742 120.501717,49.889603 121.323929,53.745651 
z"/>
<path fill="#1F95B3" opacity="1.000000" stroke="none" 
	d="
M111.108109,55.743942 
	C109.076721,56.950291 107.071831,57.719769 105.066940,58.489243 
	C104.586273,57.891964 104.105606,57.294682 103.624939,56.697399 
	C105.365120,54.442093 106.802673,50.690781 108.912743,50.263920 
	C112.549377,49.528229 110.570343,53.430557 111.108109,55.743942 
z"/>
<path fill="#1F95B2" opacity="1.000000" stroke="none" 
	d="
M115.127960,80.244141 
	C115.134926,81.837341 115.350639,83.064568 115.028580,84.129105 
	C114.811798,84.845688 113.844200,85.782608 113.195557,85.795921 
	C112.539635,85.809402 111.279152,84.784660 111.298973,84.252541 
	C111.373924,82.240456 111.861397,80.243752 112.194504,78.241287 
	C113.165611,78.763840 114.136711,79.286385 115.127960,80.244141 
z"/>
<path fill="#1F96B4" opacity="1.000000" stroke="none" 
	d="
M116.903030,64.902908 
	C116.714355,61.446712 116.714355,61.446712 122.888702,62.444550 
	C122.109673,65.856079 120.232399,66.594559 116.903030,64.902908 
z"/>
<path fill="#1F96B3" opacity="1.000000" stroke="none" 
	d="
M133.540863,61.974911 
	C133.573196,63.200657 133.130661,65.397942 132.836594,65.378258 
	C131.130814,65.264030 129.459976,64.627892 127.777328,64.168289 
	C127.870087,63.520962 127.962837,62.873638 128.055588,62.226311 
	C129.748581,62.125004 131.441589,62.023693 133.540863,61.974911 
z"/>
<path fill="#04374F" opacity="1.000000" stroke="none" 
	d="
M118.474899,128.256927 
	C116.684296,128.921417 115.065559,129.608231 113.766212,130.681641 
	C111.033409,132.939255 109.622971,132.133591 109.027611,128.942947 
	C107.842453,122.591560 106.744354,116.223373 105.499908,109.883789 
	C104.809967,106.369011 106.694954,105.685188 109.453224,106.197769 
	C115.152641,107.256905 120.832458,108.432251 126.495621,109.672653 
	C132.127136,110.906128 132.336716,111.713806 128.437057,116.061371 
	C127.900459,116.659607 127.422424,117.310387 126.772881,118.115936 
	C127.755928,119.243652 128.560089,120.257919 129.458038,121.180939 
	C134.306030,126.164307 134.314041,126.156502 129.485764,130.938904 
	C125.493172,134.893539 125.493179,134.893539 118.474899,128.256927 
M110.170189,112.481651 
	C110.980858,116.599335 111.791519,120.717018 112.736946,125.519157 
	C119.879494,117.688927 121.334396,127.819839 125.689667,128.583908 
	C128.897430,126.902328 127.928871,125.091896 125.759056,123.357368 
	C122.347328,120.630066 120.326546,117.656418 124.792465,112.865204 
	C119.255608,112.407715 114.772728,112.037308 110.170189,112.481651 
z"/>
<path fill="#053B53" opacity="1.000000" stroke="none" 
	d="
M100.784012,104.343826 
	C99.007736,102.813744 97.505486,101.512848 95.295570,99.599144 
	C97.152924,98.549004 98.852791,97.142296 99.244766,97.442619 
	C101.041603,98.819305 102.472450,100.673660 104.034698,102.356522 
	C103.042473,103.095352 102.050247,103.834175 100.784012,104.343826 
z"/>
<path fill="#063D55" opacity="1.000000" stroke="none" 
	d="
M115.227905,103.153938 
	C113.781525,103.492271 112.592133,103.576904 111.402748,103.661545 
	C111.550247,102.668564 111.465172,101.557854 111.895378,100.707977 
	C112.702362,99.113823 113.807457,97.670586 114.639091,96.394028 
	C120.109077,99.429436 117.030228,101.112816 115.227905,103.153938 
z"/>
<path fill="#043850" opacity="1.000000" stroke="none" 
	d="
M109.157837,97.117264 
	C108.707657,99.004723 108.253128,100.443642 107.798599,101.882561 
	C106.962532,101.548805 105.427628,101.254150 105.406410,100.874809 
	C105.288948,98.775131 104.757080,95.981667 105.854805,94.704903 
	C107.368431,92.944397 109.132118,94.087532 109.157837,97.117264 
z"/>
<path fill="#04354D" opacity="1.000000" stroke="none" 
	d="
M94.453171,109.914124 
	C94.272995,108.575851 94.522835,106.249435 94.758766,106.250839 
	C96.793251,106.262993 98.825226,106.694801 100.857956,107.001465 
	C100.361244,107.994354 100.076218,109.579712 99.321136,109.849503 
	C97.990959,110.324806 96.373764,109.996857 94.453171,109.914124 
z"/>
<path fill="#053951" opacity="1.000000" stroke="none" 
	d="
M103.815544,113.808304 
	C102.253464,115.823380 100.714584,117.470779 99.175713,119.118172 
	C98.631760,118.977448 98.087814,118.836723 97.543861,118.695992 
	C97.729477,117.273438 97.437996,115.466904 98.205788,114.512886 
	C99.561867,112.827881 101.246490,109.821808 103.815544,113.808304 
z"/>
<path fill="#209AB8" opacity="1.000000" stroke="none" 
	d="
M110.230019,112.074280 
	C114.772728,112.037308 119.255608,112.407715 124.792465,112.865204 
	C120.326546,117.656418 122.347328,120.630066 125.759056,123.357368 
	C127.928871,125.091896 128.897430,126.902328 125.689667,128.583908 
	C121.334396,127.819839 119.879494,117.688927 112.736946,125.519157 
	C111.791519,120.717018 110.980858,116.599335 110.230019,112.074280 
z"/>
</svg>