<svg xmlns="http://www.w3.org/2000/svg" height="800" width="1200" viewBox="-15.874995 -10.124625 137.58329 60.74775"><path d="M12.9595 1.981h-4.989v13.1822H4.9924V1.981H0V0h12.9595zM25.703 15.1632h-2.8684V9.699c0-.8775-.1396-1.4692-.4155-1.7916-.3623-.4553-1.1102-.6847-2.237-.6847-1.356 0-2.2335.3823-2.6623 1.1534-.2526.4121-.379 1.2165-.379 2.4164v4.3708h-2.8717V.0232h2.8718v6.5446c.359-.3789.8741-.9572 1.5555-1.1832.6947-.2061 1.4293-.3025 2.2137-.3025.8974 0 1.6685.0931 2.2967.2825.6282.1828 1.1368.4886 1.5257.8974.6448.6548.9705 1.9112.9705 3.2308zm12.1585-5.0322c0-.8609-.3457-1.5855-1.0237-2.1638-.728-.6249-1.7218-.934-2.9848-.934-1.19 0-2.134.2991-2.8419.9007-.708.605-1.0636 1.3362-1.0636 2.197 0 .8742.3357 1.6188 1.0138 2.2303.6714.6183 1.6386.9274 2.8917.9274 1.2464 0 2.2236-.2925 2.9316-.8908.7212-.595 1.0769-1.3428 1.0769-2.2668m2.7687 5.0056h-2.875v-1.4625a4.1483 4.1483 0 01-.7978.5817c-.3025.1695-.6647.3424-1.0802.4986-.3523.1263-.7313.2227-1.1168.2958-.3922.0631-.8144.103-1.2531.103-1.951 0-3.5133-.4919-4.6733-1.479-1.1766-.9939-1.755-2.1838-1.755-3.5765 0-1.3295.585-2.6058 1.7617-3.5697 1.1766-.9573 2.7056-1.4426 4.5835-1.4426.4886 0 .914.0366 1.2863.0931.3823.0598.7645.1629 1.1368.2992.3523.1097.6847.2559.9905.4387.3024.1828.6115.5518.9173.8276V5.0622h2.8751zm19.4044-4.414c0-.9074-.5717-1.5688-1.7118-1.9777-.8243-.2858-1.9643-.4287-3.4301-.4287h-1.3595v4.8926h1.755c1.3694 0 2.453-.1529 3.2307-.462 1.0138-.4254 1.5157-1.0969 1.5157-2.0242M58.253 4.2212c0-.8575-.4188-1.4724-1.2497-1.8547-.6448-.2891-1.6353-.432-2.9748-.432h-.4953v4.62h.4155c.7545 0 1.3628-.0266 1.8347-.0797.472-.0565.8742-.1661 1.2199-.3224.831-.3656 1.2497-1.007 1.2497-1.931m4.763 6.611c0 .7146-.186 1.3527-.5617 1.8979-.3756.5484-.9506 1.0137-1.7217 1.396-.6814.3357-1.4326.5883-2.2835.7611-.8342.1629-1.7915.246-2.8451.246h-5.0456V.0067h2.7156c2.3831 0 4.1747.2693 5.3945.801 1.602.688 2.4064 1.8248 2.4064 3.407 0 .5883-.1994 1.1566-.5883 1.7084-.3855.555-.924.9506-1.6153 1.1833v-.1662c1.1633.1629 2.1471.6215 2.9449 1.3893.801.7678 1.1998 1.5988 1.1998 2.5029m11.0982-1.9046c-.4021-1.3163-1.5056-1.9744-3.3138-1.9744-.4387 0-.8376.0399-1.2065.123-.359.083-.7014.2227-1.0238.4088-.6215.3357-1.0337.8144-1.2331 1.4426zm3.0014 3.5232c-.6747.8708-1.5555 1.529-2.6457 1.9943-1.0836.4553-2.3.6847-3.6396.6847-1.9378 0-3.5166-.462-4.7397-1.376-1.2265-.9141-1.838-2.094-1.838-3.5433 0-.7478.1329-1.5588.402-2.1471.2693-.5983.7014-1.1301 1.2631-1.6054 1.17-.9307 2.792-1.396 4.8727-1.396 2.0575 0 3.613.4653 4.6667 1.3926 1.0503.9207 1.582 2.1107 1.582 3.5532v.5684H67.121c0 .708.3423 1.3395 1.0237 1.8979.7146.5251 1.6187.791 2.6923.791.4653 0 .8608-.0299 1.1932-.0864.3257-.0532.6415-.1529.9473-.2958.2659-.1462.5418-.3357.8343-.5617.3024-.2227.5916-.4986.8874-.811zm13.7573-7.3556l-6.8836 10.0545-6.784-10.0545 3.3006-.01 3.4967 5.7203 3.593-5.6937zm0 0" fill="#017840"/><path d="M47.3975 2.0175c0 1.1102-.8841 2.0076-1.991 2.0076-1.0935 0-1.9843-.8974-1.9843-2.0076 0-1.1068.8908-2.0109 1.9843-2.0109 1.1069 0 1.991.9041 1.991 2.011" fill="#ad841a"/><path d="M46.8657 15.12h-2.9482V5.0555h2.9482zM.0266 17.6228s34.644-1.8746 69.1684 1.509c24.174 2.3666 36.6383 6.2289 36.6383 11.5901 0 5.3713-15.2762 10.6096-70.2087 9.6657 0 0 41.1587-2.0408 41.2218-9.6158 0 0 1.8082-10.2971-76.8198-13.149" fill="#017840"/><path d="M20.2353 37.7717c34.8568 1.4725 68.753-6.1091 38.882-12.6637C28.4451 18.3873.0265 19.0587.0265 19.0587s52.0242 4.2711 52.7555 10.912c.545 4.9658-32.5468 7.801-32.5468 7.801" fill="#ad841a"/></svg>