<?xml version="1.0" encoding="UTF-8"?>
<svg version="1.1" xmlns="http://www.w3.org/2000/svg" width="500" height="500">
<path d="M0 0 C165 0 330 0 500 0 C500 165 500 330 500 500 C335 500 170 500 0 500 C0 335 0 170 0 0 Z " fill="#FEFEFE" transform="translate(0,0)"/>
<path d="M0 0 C1.19109375 0.91845703 1.19109375 0.91845703 2.40625 1.85546875 C19.28546208 15.79270549 30.29310341 36.58457074 34 58 C34.9563629 73.00104676 34.76057578 87.67391947 30 102 C29.78569336 102.64855957 29.57138672 103.29711914 29.35058594 103.96533203 C24.68610925 117.70415093 16.97438405 128.55064528 7 139 C6.46117187 139.61359375 5.92234375 140.2271875 5.3671875 140.859375 C-7.83000602 155.31660207 -30.54899088 164.68293617 -49.77807617 166.22241211 C-77.94429252 167.34404357 -101.41440714 160.07490878 -122.79296875 141.07421875 C-136.87454623 127.96729153 -145.10904387 111.35593656 -150 93 C-150.24621094 92.16597656 -150.49242187 91.33195312 -150.74609375 90.47265625 C-156.29194351 68.70997685 -150.31129334 44.79107919 -139.625 25.6875 C-126.21484087 3.76761189 -105.58321472 -12.15681422 -80.5625 -18.4921875 C-51.8674653 -24.17870352 -22.9833781 -18.17365431 0 0 Z " fill="#219EBB" transform="translate(307,144)"/>
<path d="M0 0 C12.54 0 25.08 0 38 0 C45 13 45 13 45.25 17.5 C43.83687879 21.4567394 42.01826793 23.15698634 39 26 C40.30988892 25.99214478 40.30988892 25.99214478 41.64624023 25.98413086 C44.87589273 25.96712249 48.10552245 25.95456631 51.33520508 25.94506836 C52.73495228 25.9400292 54.1346942 25.93319784 55.53442383 25.92456055 C57.54245777 25.9124768 59.55052957 25.90730193 61.55859375 25.90234375 C63.37315063 25.89448853 63.37315063 25.89448853 65.22436523 25.88647461 C68 26 68 26 69 27 C69.07119255 29.00327155 69.07232986 31.0090563 69.04663086 33.01342773 C69.03429916 34.30244492 69.02196747 35.5914621 69.00926208 36.91954041 C69.00134581 37.61368483 68.99342953 38.30782925 68.98527336 39.02300835 C68.94317527 43.47519853 68.95500183 47.92765299 68.95516109 52.38000393 C68.95217387 56.28810406 68.93174488 60.19460291 68.87329102 64.10229492 C68.81776856 67.88437832 68.81178501 71.66378743 68.83798409 75.44615364 C68.83921092 76.88097631 68.82294788 78.3159346 68.78806877 79.75033379 C68.5607758 88.44037986 68.5607758 88.44037986 72.27542114 96.02737427 C74.9513846 98.70475212 74.9513846 98.70475212 77.77394104 100.93812561 C80 103 80 103 80.76817322 105.15965271 C80.86372804 109.66579437 79.53378635 113.35768212 77 117 C72.32105198 121.58578458 68.37282474 123.68008528 61.81083679 123.80206299 C60.48424797 123.78148834 60.48424797 123.78148834 59.13085938 123.76049805 C57.69997734 123.77385948 57.69997734 123.77385948 56.2401886 123.78749084 C53.10733286 123.80868805 49.97655356 123.78651233 46.84375 123.76171875 C44.65474234 123.76322231 42.46573523 123.76665513 40.2767334 123.77192688 C35.69707349 123.77625168 31.11811934 123.75946979 26.53857422 123.72729492 C20.68080417 123.68751536 14.82435713 123.69681929 8.9665451 123.72152996 C4.44876339 123.73574088 -0.06871151 123.72560407 -4.58647156 123.70801735 C-6.74573534 123.70218472 -8.90503074 123.70344442 -11.06428528 123.71204185 C-14.08718168 123.72007054 -17.10816632 123.69569455 -20.13085938 123.6628418 C-21.01525192 123.67139191 -21.89964447 123.67994202 -22.81083679 123.68875122 C-28.92355343 123.57460714 -33.36272649 122.09614747 -38 118 C-41.18223231 113.45828294 -42.6659442 109.61862876 -42 104 C-39.63920593 101.56083679 -39.63920593 101.56083679 -36.58081055 99.1081543 C-31.98017054 94.9631514 -30.18942116 91.98806725 -29.65942383 85.60083008 C-29.58225126 82.81857058 -29.6358426 80.05137318 -29.70703125 77.26953125 C-29.7051051 75.78308247 -29.69832026 74.29663287 -29.68693542 72.81022644 C-29.67007814 68.93411369 -29.71834761 65.06156666 -29.78112793 61.18603516 C-29.84283963 56.51707699 -29.82202537 51.8478158 -29.81536102 47.17855072 C-29.81436431 40.11683041 -29.91685473 33.06348046 -30 26 C-20.43 26 -10.86 26 -1 26 C-3.475 23.03 -3.475 23.03 -6 20 C-7 13 -7 13 0 0 Z " fill="#043A51" transform="translate(231,155)"/>
<path d="M0 0 C8.25 0 16.5 0 25 0 C25.33 4.29 25.66 8.58 26 13 C38.54 13 51.08 13 64 13 C64.495 6.565 64.495 6.565 65 0 C73.58 0 82.16 0 91 0 C91 20.13 91 40.26 91 61 C60.97 61 30.94 61 0 61 C0 40.87 0 20.74 0 0 Z " fill="#209DBA" transform="translate(205,185)"/>
<path d="M0 0 C11.55 0 23.1 0 35 0 C35.99 1.98 36.98 3.96 38 6 C57.305 6.495 57.305 6.495 77 7 C77.66 5.02 78.32 3.04 79 1 C80 0 80 0 83.23461914 -0.11352539 C84.66814126 -0.11336631 86.10166912 -0.10767407 87.53515625 -0.09765625 C88.66503212 -0.09553383 88.66503212 -0.09553383 89.81773376 -0.09336853 C92.2326956 -0.08775376 94.64756601 -0.07519883 97.0625 -0.0625 C98.69596221 -0.0574869 100.32942586 -0.05292366 101.96289062 -0.04882812 C105.97529585 -0.03777954 109.98763241 -0.02050506 114 0 C113.26867264 4.84301231 111.74908279 6.78650046 108 10 C105.31549744 10.89483419 103.75134248 11.13212319 100.99711609 11.15390015 C100.18549011 11.16250061 99.37386414 11.17110107 98.53764343 11.17996216 C97.65083389 11.18422211 96.76402435 11.18848206 95.8503418 11.19287109 C94.91344513 11.20104858 93.97654846 11.20922607 93.01126099 11.21765137 C89.90725341 11.24248736 86.80329147 11.25901588 83.69921875 11.2734375 C82.10934112 11.28142302 82.10934112 11.28142302 80.48734474 11.28956985 C74.87837065 11.31629226 69.26941875 11.33567103 63.66040039 11.35009766 C57.86635277 11.36675306 52.07287309 11.41154132 46.27904034 11.4624691 C41.82405439 11.49611522 37.36920379 11.50767215 32.91410255 11.51332474 C30.77825385 11.52004328 28.64241423 11.5352809 26.50668907 11.55921555 C23.51660115 11.59081588 20.52805269 11.59091145 17.5378418 11.58349609 C16.65710495 11.59990143 15.7763681 11.61630676 14.86894226 11.63320923 C10.77607198 11.59169347 7.85975979 11.34784454 4.52888489 8.83853149 C2 6 2 6 0 0 Z " fill="#209CBA" transform="translate(193,263)"/>
<path d="M0 0 C0.9271431 -0.01168213 1.85428619 -0.02336426 2.80952454 -0.03540039 C5.88117751 -0.06905409 8.9523487 -0.07973061 12.02416992 -0.08740234 C14.15785394 -0.09957895 16.29153621 -0.11206483 18.42521667 -0.12484741 C22.90168088 -0.14734372 27.37797462 -0.15687958 31.85449219 -0.15917969 C37.58834559 -0.16446088 43.3207787 -0.21577263 49.05424976 -0.27869606 C53.46296253 -0.31957932 57.87133279 -0.32882203 62.28021812 -0.32929611 C64.39375503 -0.33468133 66.50729521 -0.35155056 68.62064552 -0.38014603 C71.58017104 -0.41684734 74.53646845 -0.40916571 77.49609375 -0.390625 C78.80317291 -0.42130569 78.80317291 -0.42130569 80.13665771 -0.4526062 C82.5962677 -0.41030884 82.5962677 -0.41030884 86.94213867 0.45166016 C88.92213867 2.76166016 90.90213867 5.07166016 92.94213867 7.45166016 C57.63213867 7.45166016 22.32213867 7.45166016 -14.05786133 7.45166016 C-10.45714661 0.25023071 -7.79201125 0.00187805 0 0 Z " fill="#209DBB" transform="translate(211.057861328125,250.54833984375)"/>
<path d="M0 0 C4.95 0 9.9 0 15 0 C16.34106405 2.6821281 16.21450419 4.88398032 16.31640625 7.8828125 C16.35830078 9.04941406 16.40019531 10.21601563 16.44335938 11.41796875 C16.48267578 12.64128906 16.52199219 13.86460937 16.5625 15.125 C16.60568359 16.35605469 16.64886719 17.58710938 16.69335938 18.85546875 C16.79968704 21.90352853 16.90171781 24.9516719 17 28 C18.32 28.33 19.64 28.66 21 29 C20.6875 30.9375 20.6875 30.9375 20 33 C16.07703567 34.30765478 13.13997567 34.1971417 9 34 C7 32 7 32 6.8046875 29.8359375 C6.82789063 29.02382813 6.85109375 28.21171875 6.875 27.375 C6.89304687 26.55773437 6.91109375 25.74046875 6.9296875 24.8984375 C6.95289063 24.27195312 6.97609375 23.64546875 7 23 C3.04 23.495 3.04 23.495 -1 24 C-2.32 27.3 -3.64 30.6 -5 34 C-6.65 34 -8.3 34 -10 34 C-9.3634923 27.04470672 -6.04922931 21.03786776 -3.15039062 14.78710938 C-2.74884766 13.88927734 -2.34730469 12.99144531 -1.93359375 12.06640625 C-1.3775647 10.8589978 -1.3775647 10.8589978 -0.81030273 9.62719727 C0.34384992 6.34337533 0.34384992 6.34337533 0 0 Z " fill="#28A1BE" transform="translate(321,327)"/>
<path d="M0 0 C2.475 0.495 2.475 0.495 5 1 C5 11.89 5 22.78 5 34 C3.35 34 1.7 34 0 34 C-0.33 33.34 -0.66 32.68 -1 32 C-1.99 32.66 -2.98 33.32 -4 34 C-6.15625 34.30078125 -6.15625 34.30078125 -8.5 34.3125 C-9.66015625 34.33763672 -9.66015625 34.33763672 -10.84375 34.36328125 C-13.52320025 33.91185213 -14.3428365 33.1127583 -16 31 C-18.02025499 26.42784398 -18.81659248 21.93890875 -18 17 C-15.98497111 13.24787724 -14.54533858 11.36355905 -11 9 C-6.92509248 8.66042437 -5.46998729 8.68667514 -2 11 C-1.90912109 9.93458984 -1.90912109 9.93458984 -1.81640625 8.84765625 C-1.73261719 7.92855469 -1.64882812 7.00945312 -1.5625 6.0625 C-1.48128906 5.14597656 -1.40007812 4.22945313 -1.31640625 3.28515625 C-1 1 -1 1 0 0 Z " fill="#0A374D" transform="translate(255,327)"/>
<path d="M0 0 C3.29150125 -0.08685287 6.5827096 -0.14033895 9.875 -0.1875 C10.81214844 -0.21263672 11.74929688 -0.23777344 12.71484375 -0.26367188 C14.05869141 -0.27817383 14.05869141 -0.27817383 15.4296875 -0.29296875 C16.25710449 -0.3086792 17.08452148 -0.32438965 17.93701172 -0.34057617 C18.61779785 -0.22818604 19.29858398 -0.1157959 20 0 C22.96931456 4.45397184 22.51259217 8.77462015 22 14 C20.6168113 17.08073848 19.3615433 18.6384567 17 21 C14.6171875 21.1953125 14.6171875 21.1953125 11.875 21.125 C10.50988281 21.09792969 10.50988281 21.09792969 9.1171875 21.0703125 C8.41851562 21.04710937 7.71984375 21.02390625 7 21 C7 23.97 7 26.94 7 30 C3.23312136 31.88343932 1.97041037 32.22057835 -2 32 C-2.16446375 27.55947873 -2.01779099 23.7041955 -1 19.375 C0.42471288 12.95375886 0.16969449 6.54266543 0 0 Z " fill="#28A1BE" transform="translate(368,340)"/>
<path d="M0 0 C8.24430867 0.47912816 16.00044527 1.97785501 24 4 C24 8.26826873 23.62386487 8.93882432 21 12 C21.44472656 12.38671875 21.88945312 12.7734375 22.34765625 13.171875 C22.91355469 13.69265625 23.47945313 14.2134375 24.0625 14.75 C24.63097656 15.26046875 25.19945312 15.7709375 25.78515625 16.296875 C27 18 27 18 26.82421875 20.02734375 C25.51054104 23.1714539 23.64159439 24.89873173 21 27 C17.48572445 27.08571404 16.30702156 26.27383004 13.6875 23.9375 C13.130625 23.298125 12.57375 22.65875 12 22 C11.1646875 22.4640625 11.1646875 22.4640625 10.3125 22.9375 C7.87172014 24.05893939 5.63182182 24.51553529 3 25 C2.29852167 21.58604938 1.61627764 18.16853031 0.9375 14.75 C0.73833984 13.78191406 0.53917969 12.81382812 0.33398438 11.81640625 C0.15029297 10.88183594 -0.03339844 9.94726562 -0.22265625 8.984375 C-0.48187866 7.69611816 -0.48187866 7.69611816 -0.74633789 6.38183594 C-1.00554788 3.94790649 -0.75084609 2.31101537 0 0 Z " fill="#03374E" transform="translate(243,215)"/>
<path d="M0 0 C3.29150125 -0.08685287 6.5827096 -0.14033895 9.875 -0.1875 C10.81214844 -0.21263672 11.74929688 -0.23777344 12.71484375 -0.26367188 C14.05869141 -0.27817383 14.05869141 -0.27817383 15.4296875 -0.29296875 C16.25710449 -0.3086792 17.08452148 -0.32438965 17.93701172 -0.34057617 C18.61779785 -0.22818604 19.29858398 -0.1157959 20 0 C22.96931456 4.45397184 22.51259217 8.77462015 22 14 C20.6168113 17.08073848 19.3615433 18.6384567 17 21 C14.6171875 21.1953125 14.6171875 21.1953125 11.875 21.125 C10.50988281 21.09792969 10.50988281 21.09792969 9.1171875 21.0703125 C8.41851562 21.04710937 7.71984375 21.02390625 7 21 C7 23.97 7 26.94 7 30 C3.23312136 31.88343932 1.97041037 32.22057835 -2 32 C-2.16446375 27.55947873 -2.01779099 23.7041955 -1 19.375 C0.42471288 12.95375886 0.16969449 6.54266543 0 0 Z " fill="#27A1BE" transform="translate(343,340)"/>
<path d="M0 0 C3.78580423 2.03850997 7.05061257 4.10122513 9 8 C9.5437498 13.61874795 9.15737699 17.15117105 6 22 C2.08581678 25.62040346 -1.21810753 25.55333653 -6.36328125 25.4296875 C-9 25 -9 25 -12.125 22.625 C-15.71391724 17.60051587 -15.63974036 13.06438805 -15 7 C-11.3947359 0.69078783 -7.07790307 -0.73219687 0 0 Z " fill="#0D394F" transform="translate(281,336)"/>
<path d="M0 0 C3.59083058 3.01956208 5.5685438 5.31648178 6 10.0625 C5.75 12.3125 5.75 12.3125 4.75 13.3125 C2.05345146 13.38569621 -0.61691458 13.40492537 -3.3125 13.375 C-4.45041992 13.36823242 -4.45041992 13.36823242 -5.61132812 13.36132812 C-7.49091871 13.3495068 -9.37046899 13.33157078 -11.25 13.3125 C-10.59 14.6325 -9.93 15.9525 -9.25 17.3125 C-3.16591528 17.51064261 -3.16591528 17.51064261 2.75 16.3125 C3.08 17.9625 3.41 19.6125 3.75 21.3125 C-1.222219 24.28152285 -6.63769179 24.08687586 -12.25 23.3125 C-15.22361086 21.09686838 -16.61959793 19.57330415 -18.25 16.3125 C-18.75260166 11.19585036 -19.09102072 6.78428626 -16.5 2.25 C-11.29045309 -2.23599873 -6.38110003 -3.31326348 0 0 Z " fill="#0D394F" transform="translate(200.25,337.6875)"/>
<path d="M0 0 C1.2065625 0.0309375 1.2065625 0.0309375 2.4375 0.0625 C3.75141118 3.33276822 5.06338516 6.60381018 6.375 9.875 C6.74818359 10.80376953 7.12136719 11.73253906 7.50585938 12.68945312 C7.86357422 13.58212891 8.22128906 14.47480469 8.58984375 15.39453125 C8.91976318 16.21671143 9.24968262 17.0388916 9.58959961 17.88598633 C10.25466342 19.59316857 10.85812266 21.32436797 11.4375 23.0625 C11.7048999 22.4012915 11.9722998 21.74008301 12.24780273 21.05883789 C13.4542498 18.07982351 14.66457088 15.10239848 15.875 12.125 C16.29587891 11.08408203 16.71675781 10.04316406 17.15039062 8.97070312 C17.55322266 7.98134766 17.95605469 6.99199219 18.37109375 5.97265625 C18.74290771 5.05621338 19.11472168 4.13977051 19.49780273 3.19555664 C20.4375 1.0625 20.4375 1.0625 21.4375 0.0625 C23.10367115 0.02186168 24.77138095 0.019779 26.4375 0.0625 C26.03931525 7.8717968 23.71356378 13.91934264 20.5 21 C20.04431641 22.03962891 19.58863281 23.07925781 19.11914062 24.15039062 C15.73575637 31.76424363 15.73575637 31.76424363 13.4375 34.0625 C11.00708008 34.05175781 11.00708008 34.05175781 8.4375 33.0625 C6.76831055 30.54980469 6.76831055 30.54980469 5.32421875 27.234375 C4.5362793 25.44580078 4.5362793 25.44580078 3.73242188 23.62109375 C3.46872803 22.9957373 3.20503418 22.37038086 2.93334961 21.72607422 C2.12995118 19.82422074 1.29736119 17.93743703 0.45898438 16.05078125 C-4.02451481 5.70253096 -4.02451481 5.70253096 -3.5625 1.0625 C-2.5625 0.0625 -2.5625 0.0625 0 0 Z " fill="#0B374D" transform="translate(151.5625,326.9375)"/>
<path d="M0 0 C3.41763266 0.48970604 5.74412263 0.42972173 9.0625 -0.4375 C9.7225 -0.1075 10.3825 0.2225 11.0625 0.5625 C13.95937477 0.68845108 16.45150279 0.73707063 19.25 -0.0625 C20.1471875 -0.248125 20.1471875 -0.248125 21.0625 -0.4375 C22.0525 0.2225 23.0425 0.8825 24.0625 1.5625 C24.28357787 4.3510289 24.34357535 6.90903181 24.25 9.6875 C24.22969727 10.81865234 24.22969727 10.81865234 24.20898438 11.97265625 C24.17359985 13.83624127 24.11979167 15.69945978 24.0625 17.5625 C20.7625 17.5625 17.4625 17.5625 14.0625 17.5625 C13.7325 13.9325 13.4025 10.3025 13.0625 6.5625 C9.7625 6.5625 6.4625 6.5625 3.0625 6.5625 C2.7325 10.1925 2.4025 13.8225 2.0625 17.5625 C-1.2375 17.5625 -4.5375 17.5625 -7.9375 17.5625 C-8.01824203 14.93688891 -8.0778623 12.31374324 -8.125 9.6875 C-8.15013672 8.94113281 -8.17527344 8.19476563 -8.20117188 7.42578125 C-8.23046875 5.2578125 -8.23046875 5.2578125 -7.9375 1.5625 C-4.50376357 -0.72665762 -3.89419462 -0.56802538 0 0 Z " fill="#209BB8" transform="translate(241.9375,177.4375)"/>
<path d="M0 0 C2 0.25 2 0.25 4 1 C4.33 1.99 4.66 2.98 5 4 C5.53625 3.34 6.0725 2.68 6.625 2 C9 0 9 0 11.9375 -0.5 C15.67349911 0.10995904 17.31038497 1.38723111 20 4 C21.13945516 6.27891033 21.12894214 7.56782104 21.1328125 10.09765625 C21.13474609 11.29938477 21.13474609 11.29938477 21.13671875 12.52539062 C21.13285156 13.36263672 21.12898438 14.19988281 21.125 15.0625 C21.13080078 16.32416992 21.13080078 16.32416992 21.13671875 17.61132812 C21.12662682 23.87337318 21.12662682 23.87337318 20 25 C17.5 25.125 17.5 25.125 15 25 C12.75375416 22.75375416 13.54210398 16.90757472 13.39453125 13.7265625 C13.53841351 10.05812952 13.53841351 10.05812952 12 7 C9.5 6.83333333 9.5 6.83333333 7 7 C4.94077598 9.05922402 5.58572421 13.21708124 5.4375 16.0625 C5.39431641 16.82111328 5.35113281 17.57972656 5.30664062 18.36132812 C5.20026367 20.24065438 5.09960066 22.12030244 5 24 C3.34385343 24.38218767 1.67542976 24.71395102 0 25 C-1.68516954 23.31483046 -1.13008019 21.21232212 -1.1328125 18.90625 C-1.13474609 17.36130859 -1.13474609 17.36130859 -1.13671875 15.78515625 C-1.13285156 14.70105469 -1.12898437 13.61695313 -1.125 12.5 C-1.12886719 11.41589844 -1.13273438 10.33179688 -1.13671875 9.21484375 C-1.13542969 8.18488281 -1.13414062 7.15492188 -1.1328125 6.09375 C-1.13168457 5.14177734 -1.13055664 4.18980469 -1.12939453 3.20898438 C-1 1 -1 1 0 0 Z " fill="#0F3A50" transform="translate(212,336)"/>
<path d="M0 0 C2 0.3125 2 0.3125 4 1 C4.33 1.66 4.66 2.32 5 3 C5.391875 2.484375 5.78375 1.96875 6.1875 1.4375 C6.785625 0.963125 7.38375 0.48875 8 0 C10.6875 0.3125 10.6875 0.3125 13 1 C13 2.32 13 3.64 13 5 C12.030625 5.45375 11.06125 5.9075 10.0625 6.375 C6.92920418 7.65786221 6.92920418 7.65786221 6 10 C5.76970044 12.37123246 5.58880058 14.74741943 5.4375 17.125 C5.35371094 18.40632813 5.26992188 19.68765625 5.18359375 21.0078125 C5.09271484 22.48894531 5.09271484 22.48894531 5 24 C3.34385343 24.38218767 1.67542976 24.71395102 0 25 C-1.68516954 23.31483046 -1.13008019 21.21232212 -1.1328125 18.90625 C-1.13474609 17.36130859 -1.13474609 17.36130859 -1.13671875 15.78515625 C-1.13285156 14.70105469 -1.12898438 13.61695313 -1.125 12.5 C-1.12886719 11.41589844 -1.13273437 10.33179688 -1.13671875 9.21484375 C-1.13542969 8.18488281 -1.13414062 7.15492188 -1.1328125 6.09375 C-1.13168457 5.14177734 -1.13055664 4.18980469 -1.12939453 3.20898438 C-1 1 -1 1 0 0 Z " fill="#09364C" transform="translate(296,336)"/>
<path d="M0 0 C5.19209404 -0.21192221 9.126739 0.4087311 14 2 C13.01 3.485 13.01 3.485 12 5 C12.14640138 9.24564004 15.3256447 11.98277864 18 15 C16.02 15.99 16.02 15.99 14 17 C13.278125 16.175 12.55625 15.35 11.8125 14.5 C9.27082634 11.75592194 9.27082634 11.75592194 6.1875 11.6875 C5.465625 11.790625 4.74375 11.89375 4 12 C4 12.66 4 13.32 4 14 C3.34 14 2.68 14 2 14 C1.66179834 12.4176994 1.32964061 10.83410625 1 9.25 C0.814375 8.36828125 0.62875 7.4865625 0.4375 6.578125 C0 4 0 4 0 0 Z " fill="#1F9AB8" transform="translate(247,220)"/>
<path d="M0 0 C1.59211531 3.18423061 1.38981631 6.53417863 1 10 C-0.1875 12 -0.1875 12 -2 13 C-4.5 13.4375 -4.5 13.4375 -7 13 C-9.77334669 10.60918389 -9.98943126 9.100403 -10.375 5.4375 C-10 2 -10 2 -8.9375 0 C-5.80758074 -1.6154422 -3.31825907 -0.79884015 0 0 Z " fill="#F4F6F7" transform="translate(282,343)"/>
<path d="M0 0 C2.79836832 -0.4305182 4.35526759 -0.37794659 6.8125 1.0625 C8.67584949 4.10270179 8.36649683 6.51828011 8 10 C6.5 12.4375 6.5 12.4375 5 14 C0.25 13.25 0.25 13.25 -2 11 C-2.46376812 3.69565217 -2.46376812 3.69565217 0 0 Z " fill="#F3F5F6" transform="translate(246,342)"/>
<path d="M0 0 C11.88 0 23.76 0 36 0 C35.67 0.99 35.34 1.98 35 3 C23.78 3 12.56 3 1 3 C0.67 2.01 0.34 1.02 0 0 Z " fill="#209DBB" transform="translate(232,263)"/>
<path d="M0 0 C0.33 0 0.66 0 1 0 C1 4.62 1 9.24 1 14 C-0.98 14 -2.96 14 -5 14 C-4.34580901 8.93001981 -2.1453591 4.58009223 0 0 Z " fill="#F4FAFB" transform="translate(327,332)"/>
<path d="M0 0 C1.98 0 3.96 0 6 0 C5.125 5.75 5.125 5.75 4 8 C1.69 8 -0.62 8 -3 8 C-1.125 2.25 -1.125 2.25 0 0 Z " fill="#1E96B3" transform="translate(233,159)"/>
<path d="M0 0 C1.98 0 3.96 0 6 0 C9 5.75 9 5.75 9 8 C6.69 8 4.38 8 2 8 C1.34 5.36 0.68 2.72 0 0 Z " fill="#1F98B5" transform="translate(261,159)"/>
<path d="M0 0 C3.5625 0.1875 3.5625 0.1875 5.5625 2.1875 C5.5625 3.1775 5.5625 4.1675 5.5625 5.1875 C1.9325 5.1875 -1.6975 5.1875 -5.4375 5.1875 C-4.19786866 0.22897465 -4.19786866 0.22897465 0 0 Z " fill="#DFE4E7" transform="translate(193.4375,341.8125)"/>
<path d="M0 0 C1.65 0 3.3 0 5 0 C6.25664978 2.90600261 7 4.79604584 7 8 C4.69 8 2.38 8 0 8 C0 5.36 0 2.72 0 0 Z " fill="#1E94B1" transform="translate(252,159)"/>
<path d="M0 0 C1.32 0 2.64 0 4 0 C4.17835515 4.54805635 3.99785435 7.8794254 2 12 C1.01 12 0.02 12 -1 12 C-0.67 8.04 -0.34 4.08 0 0 Z " fill="#E7F4F7" transform="translate(378,345)"/>
<path d="M0 0 C1.32 0 2.64 0 4 0 C4.17835515 4.54805635 3.99785435 7.8794254 2 12 C1.01 12 0.02 12 -1 12 C-0.67 8.04 -0.34 4.08 0 0 Z " fill="#E7F4F7" transform="translate(353,345)"/>
<path d="M0 0 C1.32 0 2.64 0 4 0 C4 2.64 4 5.28 4 8 C2.02 8 0.04 8 -2 8 C-1.125 1.125 -1.125 1.125 0 0 Z " fill="#1F98B6" transform="translate(244,159)"/>
<path d="M0 0 C2.46800047 1.15173355 4.04783565 2.04783565 6 4 C5.625 6.125 5.625 6.125 5 8 C1.63279613 6.60667426 0.0140476 5.0210714 -2 2 C-1.34 1.34 -0.68 0.68 0 0 Z " fill="#053B53" transform="translate(235,206)"/>
<path d="M0 0 C2.64 0 5.28 0 8 0 C8 1.32 8 2.64 8 4 C5.36 4 2.72 4 0 4 C0 2.68 0 1.36 0 0 Z " fill="#053B53" transform="translate(230,215)"/>
<path d="M0 0 C1.32 0 2.64 0 4 0 C4 2.64 4 5.28 4 8 C2.68 8 1.36 8 0 8 C0 5.36 0 2.72 0 0 Z " fill="#043A51" transform="translate(242,203)"/>
<path d="M0 0 C1.32 0 2.64 0 4 0 C4 2.64 4 5.28 4 8 C2.68 8 1.36 8 0 8 C0 5.36 0 2.72 0 0 Z " fill="#1F98B6" transform="translate(248,187)"/>
<path d="M0 0 C0.99 0.33 1.98 0.66 3 1 C1.60667426 4.36720387 0.0210714 5.9859524 -3 8 C-3.66 7.01 -4.32 6.02 -5 5 C-3.35 3.35 -1.7 1.7 0 0 Z " fill="#03364D" transform="translate(252,206)"/>
<path d="M0 0 C0.33 0.99 0.66 1.98 1 3 C-1.97 5.475 -1.97 5.475 -5 8 C-5.66 7.01 -6.32 6.02 -7 5 C-2.25 0 -2.25 0 0 0 Z " fill="#03354D" transform="translate(240,220)"/>
<path d="M0 0 C2.64 0 5.28 0 8 0 C7.67 1.32 7.34 2.64 7 4 C5.35 4 3.7 4 2 4 C1.34 2.68 0.68 1.36 0 0 Z " fill="#1C8EAB" transform="translate(228,171)"/>
<path d="M0 0 C2.64 0 5.28 0 8 0 C7.34 1.32 6.68 2.64 6 4 C4.35 3.67 2.7 3.34 1 3 C0.67 2.01 0.34 1.02 0 0 Z " fill="#1D91AE" transform="translate(264,171)"/>
<path d="M0 0 C2.64 0 5.28 0 8 0 C7.34 1.32 6.68 2.64 6 4 C4.35 3.67 2.7 3.34 1 3 C0.67 2.01 0.34 1.02 0 0 Z " fill="#1D91AE" transform="translate(252,171)"/>
<path d="M0 0 C2.64 0 5.28 0 8 0 C7.34 1.32 6.68 2.64 6 4 C4.35 3.67 2.7 3.34 1 3 C0.67 2.01 0.34 1.02 0 0 Z " fill="#1D90AD" transform="translate(240,171)"/>
</svg>
